<svg width="201" height="180" viewBox="0 0 201 180" fill="none" xmlns="http://www.w3.org/2000/svg">
<path d="M54.2813 180C52.7813 180 51.375 179.625 50.0625 178.875C48.75 178.125 47.7188 177.094 46.9688 175.781L23.3438 133.594H43.3125L55.125 156.094H80.438V147.656H60.1875L48.375 125.156H18.8438L1.125 94.219C0.75 93.469 0.4688 92.766 0.2813 92.109C0.0937996 91.453 0 90.75 0 90C0 89.25 0.0937996 88.547 0.2813 87.891C0.4688 87.234 0.75 86.531 1.125 85.781L18.8438 54.8438H48.375L60.1875 32.3438H80.438V23.9062H55.125L43.3125 46.4062H23.3438L46.9688 4.2188C47.7188 2.9062 48.75 1.875 50.0625 1.125C51.375 0.375 52.7813 0 54.2813 0H87.469C89.906 0 91.922 0.796898 93.516 2.3906C95.109 3.9844 95.906 6 95.906 8.4375V57.6562H72L63.5625 66.094H95.906V102.656H68.3438L57.375 80.156H29.8125L21.375 88.594H51.75L63 111.094H95.906V171.562C95.906 174 95.109 176.016 93.516 177.609C91.922 179.203 89.906 180 87.469 180H54.2813ZM112.781 180C110.344 180 108.328 179.203 106.734 177.609C105.141 176.016 104.344 174 104.344 171.562V111.094H137.25L148.5 88.594H178.875L170.438 80.156H142.875L131.906 102.656H104.344V66.094H136.688L128.25 57.6562H104.344V8.4375C104.344 6 105.141 3.9844 106.734 2.3906C108.328 0.796898 110.344 0 112.781 0H145.969C147.469 0 148.875 0.375 150.188 1.125C151.5 1.875 152.531 2.9062 153.281 4.2188L176.906 46.4062H156.938L145.125 23.9062H119.813V32.3438H140.063L151.875 54.8438H181.406L199.125 85.781C199.5 86.531 199.781 87.234 199.969 87.891C200.156 88.547 200.25 89.25 200.25 90C200.25 90.75 200.156 91.453 199.969 92.109C199.781 92.766 199.5 93.469 199.125 94.219L181.406 125.156H151.875L140.063 147.656H119.813V156.094H145.125L156.938 133.594H176.906L153.281 175.781C152.531 177.094 151.5 178.125 150.188 178.875C148.875 179.625 147.469 180 145.969 180H112.781Z" fill="white"/>
</svg>
