<svg width="181" height="180" viewBox="0 0 181 180" fill="none" xmlns="http://www.w3.org/2000/svg">
<path d="M90.265 180C88.5 180 86.779 179.691 85.103 179.074C83.426 178.456 81.882 177.618 80.471 176.559L3.1765 116.471C1.0588 114.882 0.0441005 112.809 0.132401 110.25C0.220601 107.691 1.3235 105.618 3.4412 104.029C4.8529 102.971 6.4412 102.441 8.2059 102.441C9.9706 102.441 11.5588 102.971 12.9706 104.029L90.265 164.118L167.559 104.029C168.971 102.971 170.559 102.441 172.324 102.441C174.088 102.441 175.676 102.971 177.088 104.029C179.206 105.618 180.309 107.691 180.397 110.25C180.485 112.809 179.471 114.882 177.353 116.471L100.059 176.559C98.647 177.618 97.103 178.456 95.426 179.074C93.75 179.691 92.029 180 90.265 180ZM90.265 139.765C88.5 139.765 86.779 139.456 85.103 138.838C83.426 138.221 81.882 137.382 80.471 136.324L2.9118 76.235C1.8529 75.353 1.1029 74.382 0.6618 73.324C0.2206 72.265 0 71.118 0 69.882C0 68.647 0.2206 67.5 0.6618 66.441C1.1029 65.382 1.8529 64.4118 2.9118 63.5294L80.471 3.4412C81.882 2.3824 83.426 1.5441 85.103 0.926498C86.779 0.308798 88.5 0 90.265 0C92.029 0 93.75 0.308798 95.426 0.926498C97.103 1.5441 98.647 2.3824 100.059 3.4412L177.618 63.5294C178.676 64.4118 179.426 65.382 179.868 66.441C180.309 67.5 180.529 68.647 180.529 69.882C180.529 71.118 180.309 72.265 179.868 73.324C179.426 74.382 178.676 75.353 177.618 76.235L100.059 136.324C98.647 137.382 97.103 138.221 95.426 138.838C93.75 139.456 92.029 139.765 90.265 139.765ZM90.265 123.882L159.618 69.882L90.265 15.8824L20.9118 69.882L90.265 123.882Z" fill="white"/>
</svg>
