<svg width="170" height="180" viewBox="0 0 170 180" fill="none" xmlns="http://www.w3.org/2000/svg">
<path d="M110 180C108 180 106.25 179.25 104.75 177.75C103.25 176.25 102.5 174.5 102.5 172.5C102.5 170.333 103.25 168.542 104.75 167.125C106.25 165.708 108 165 110 165C119.833 165 128.125 163 134.875 159C141.625 155 145 150.333 145 145C145 141.167 142.542 137.417 137.625 133.75C132.708 130.083 126.083 127.25 117.75 125.25L129.5 113.5C140 116.667 147.708 121.042 152.625 126.625C157.542 132.208 160 138.333 160 145C160 156.167 154.917 164.792 144.75 170.875C134.583 176.958 123 180 110 180ZM30 106.5C19.3333 104.167 11.6667 100.5 7 95.5C2.3333 90.5 0 85.333 0 80C0 74.167 2.1667 68.917 6.5 64.25C10.8333 59.5833 20.8333 54.4167 36.5 48.75C47.5 44.75 54.5833 41.5 57.75 39C60.917 36.5 62.5 33.5833 62.5 30.25C62.5 26.0833 60.667 22.5 57 19.5C53.3333 16.5 47.6667 15 40 15C35.5 15 31.6667 15.5833 28.5 16.75C25.3333 17.9167 22.5 19.75 20 22.25C18.6667 23.5833 16.9583 24.375 14.875 24.625C12.7917 24.875 10.9167 24.3333 9.25 23C7.4167 21.6667 6.4583 20 6.375 18C6.2917 16 6.9167 14.25 8.25 12.75C11.0833 9.0833 15.3333 6.0417 21 3.625C26.6667 1.2083 33 0 40 0C51.3333 0 60.417 2.7083 67.25 8.125C74.083 13.5417 77.5 20.9167 77.5 30.25C77.5 37.0833 75.125 42.875 70.375 47.625C65.625 52.375 56.3333 57.3333 42.5 62.5C31.3333 66.667 23.9583 69.958 20.375 72.375C16.7917 74.792 15 77.333 15 80C15 82.667 17.25 85.208 21.75 87.625C26.25 90.042 33 92.333 42 94.5L30 106.5ZM154 68L122 36L133.25 24.75C136.25 21.75 139.583 20.25 143.25 20.25C146.917 20.25 150.25 21.75 153.25 24.75L165.25 36.75C168.25 39.75 169.75 43.0833 169.75 46.75C169.75 50.4167 168.25 53.75 165.25 56.75L154 68ZM25 165H35.5L121.75 78.75L111.25 68.25L25 154.5V165ZM13.75 180C12.75 180 11.875 179.625 11.125 178.875C10.375 178.125 10 177.25 10 176.25V149.5C10 149.167 10.3333 148.333 11 147L111.25 46.75L143.25 78.75L43 179C42.6667 179.333 41.8333 179.667 40.5 180H13.75Z" fill="white"/>
</svg>
